<?xml version="1.0" encoding="UTF-8" standalone="no"?>
<svg width="224px" height="56px" viewBox="0 0 224 56" version="1.1" xmlns="http://www.w3.org/2000/svg" xmlns:xlink="http://www.w3.org/1999/xlink" xmlns:sketch="http://www.bohemiancoding.com/sketch/ns">
    <!-- Generator: Sketch 3.3.2 (12043) - http://www.bohemiancoding.com/sketch -->
    <title>XMLID_63_ + XMLID_60_ + pectations Copy 2</title>
    <desc>Created with Sketch.</desc>
    <defs></defs>
    <g id="Page-1" stroke="none" stroke-width="1" fill="none" fill-rule="evenodd" sketch:type="MSPage">
        <g id="Desktop-HD" sketch:type="MSArtboardGroup" transform="translate(-608.000000, -36.000000)">
            <g id="XMLID_63_-+-XMLID_60_-+-pectations-Copy-2" sketch:type="MSLayerGroup" transform="translate(607.500000, 36.000000)">
                <g id="XMLID_63_" transform="translate(0.852858, 0.680026)" fill="#4990E2" sketch:type="MSShapeGroup">
                    <path d="M13.869148,23.3312639 L6.93457402,23.3312639 C6.1640658,23.3312639 5.54765922,23.9465939 5.54765922,24.7157564 L5.54765922,37.7402422 C5.54765922,38.5094047 4.93125264,39.1247348 4.16074441,39.1247348 L1.79785252,39.1247348 C1.0273443,39.1247348 0.41093772,38.5094047 0.41093772,37.7402422 L0.41093772,1.43577008 C0.41093772,0.666607539 1.0273443,0.051277503 1.79785252,0.051277503 L13.3554759,0.051277503 C17.7730564,0.051277503 21.1632926,1.07682756 23.5261845,3.07665018 C25.8890764,5.07647279 27.0705223,7.99929046 27.0705223,11.8451032 C27.0705223,14.2551458 26.4027485,16.408801 25.1185681,18.2035136 C24.0398566,19.6392836 22.6529418,20.8186662 20.9578237,21.6903838 C20.2386827,22.0493263 19.9818466,22.9210438 20.3414171,23.6389289 L28.8170076,38.8683473 L28.8170076,39.1760123 L24.142591,39.1760123 C23.6289189,39.1760123 23.166614,38.8683473 22.9097779,38.4581272 L15.2046956,24.1517039 C14.8964923,23.5876514 14.3828202,23.3312639 13.869148,23.3312639 L13.869148,23.3312639 Z M5.54765922,17.6907385 C5.54765922,18.4599011 6.1640658,19.0752311 6.93457402,19.0752311 L13.4582103,19.0752311 C14.8451251,19.0752311 16.0779383,18.8701211 17.1052826,18.5111786 C18.1326269,18.1009585 19.0058695,17.5881835 19.7250106,16.9728535 C20.4441516,16.3062459 20.9578237,15.5370834 21.3173942,14.6653658 C21.6769647,13.7936483 21.8310664,12.8193757 21.8310664,11.7938257 C21.8310664,10.6657206 21.6769647,9.64017056 21.3173942,8.71717551 C21.0091909,7.79418045 20.4955188,7.02501791 19.7763778,6.35841037 C19.0572368,5.69180283 18.1839941,5.1790278 17.1052826,4.82008528 C16.0265711,4.46114276 14.7423907,4.30731025 13.2527415,4.30731025 L6.88320681,4.30731025 C6.11269858,4.30731025 5.496292,4.92264029 5.496292,5.69180283 L5.496292,17.6907385 L5.54765922,17.6907385 Z" id="XMLID_64_"></path>
                </g>
                <g id="XMLID_60_" transform="translate(10.098957, 17.601602)" fill="#4990E2" sketch:type="MSShapeGroup">
                    <path d="M16.2834072,12.9219307 L25.0158337,0.871717551 C25.2213026,0.51277503 25.5808731,0.307665018 25.9918108,0.307665018 L29.0224765,0.307665018 C29.9470863,0.307665018 30.4607585,1.33321508 29.9470863,2.05110012 L18.4408302,17.5881835 C18.1839941,17.947126 18.1839941,18.4599011 18.4408302,18.8701211 L25.1185681,29.1256217 C25.6322403,29.8947842 25.0672009,30.8690568 24.1939583,30.8690568 L21.2146598,30.8690568 C20.8037221,30.8690568 20.4441516,30.6639468 20.2386827,30.3050043 L16.3347744,23.5876514 C15.8724694,22.8697663 14.8451251,22.8697663 14.3828202,23.5876514 L5.34219036,37.4838547 C5.1367215,37.8427972 4.77715099,38.0479072 4.36621327,38.0479072 L1.33554759,38.0479072 C0.41093772,38.0479072 -0.10273443,37.0223571 0.41093772,36.3044721 L12.2253972,18.8701211 C12.4822332,18.5111786 12.4822332,17.9984035 12.2253972,17.5881835 L4.31484606,5.64052533 C3.80117391,4.87136278 4.36621327,3.89709023 5.23945593,3.89709023 L8.2187544,3.89709023 C8.62969212,3.89709023 8.98926262,4.10220024 9.19473148,4.46114276 L14.2800858,12.9219307 C14.7423907,13.6398158 15.8211022,13.6398158 16.2834072,12.9219307 L16.2834072,12.9219307 Z" id="XMLID_61_"></path>
                </g>
                <path d="M60.8060086,36.7779429 C60.8060086,39.7609152 60.104515,42.1687445 58.7015068,44.0015029 C57.2984987,45.8342613 55.3456923,46.7506267 52.8430291,46.7506267 C51.6801755,46.7506267 50.6500543,46.5420746 49.7526346,46.1249641 C48.855215,45.7078535 48.0842041,45.0948366 47.4395787,44.285895 L47.4395787,54.2396193 L42.8324263,54.2396193 L42.8324263,25.8383258 L46.7191187,25.8383258 L47.1741461,28.4168144 C47.8314111,27.4561962 48.6245412,26.7231039 49.5535602,26.2175153 C50.4825791,25.7119268 51.5600985,25.4591363 52.7861506,25.4591363 C55.3140933,25.4591363 57.2826991,26.4608186 58.6920271,28.4642131 C60.1013551,30.4676077 60.8060086,33.1061082 60.8060086,36.3797939 L60.8060086,36.7779429 Z M56.2178156,36.3797939 C56.2178156,34.2816015 55.8228305,32.5657862 55.0328484,31.2322965 C54.2428664,29.8988067 53.0642308,29.2320719 51.4969063,29.2320719 C50.5362881,29.2320719 49.7210389,29.4374641 49.0511341,29.8482548 C48.3812293,30.2590455 47.8440495,30.8309839 47.4395787,31.5640873 L47.4395787,40.8352705 C47.8440495,41.5557342 48.3812293,42.1087134 49.0511341,42.4942246 C49.7210389,42.8797359 50.5489277,43.0724886 51.5348253,43.0724886 C53.1021497,43.0724886 54.2744655,42.4942304 55.0518079,41.3376966 C55.8291503,40.1811629 56.2178156,38.6612602 56.2178156,36.7779429 L56.2178156,36.3797939 Z M73.6226136,46.7506267 C70.7154796,46.7506267 68.3992869,45.7995026 66.6739661,43.8972258 C64.9486452,41.9949489 64.0859977,39.552361 64.0859977,36.5693887 L64.0859977,35.8110097 C64.0859977,32.8280374 64.9423254,30.3538506 66.6550066,28.3883752 C68.3676877,26.4228998 70.5132468,25.4464966 73.0917483,25.4591363 C75.8598455,25.4591363 77.9801256,26.2965048 79.4526522,27.9712668 C80.9251788,29.6460288 81.661431,31.8927041 81.661431,34.7113601 L81.661431,37.4225651 L68.8637854,37.4225651 L68.8258665,37.5173624 C68.9017047,39.1478854 69.3788468,40.4813552 70.2573068,41.5178116 C71.1357669,42.5542681 72.352321,43.0724886 73.9070058,43.0724886 C75.1456977,43.0724886 76.2074176,42.9208143 77.0921976,42.6174612 C77.9769775,42.3141081 78.8301453,41.8780445 79.6517267,41.3092574 L81.1305657,44.3238139 C80.3595432,45.0063585 79.3357418,45.5814568 78.0591308,46.0491262 C76.7825197,46.5167955 75.3036955,46.7506267 73.6226136,46.7506267 L73.6226136,46.7506267 Z M73.0917483,29.156234 C71.9541741,29.156234 71.0188494,29.6080969 70.285746,30.5118364 C69.5526427,31.4155759 69.0976198,32.5626127 68.9206638,33.9529811 L68.9585828,34.0477785 L77.0921976,34.0477785 L77.0921976,33.5737916 C77.0921976,32.2719012 76.7604101,31.2101812 76.0968251,30.3885998 C75.4332402,29.5670185 74.4315579,29.156234 73.0917483,29.156234 L73.0917483,29.156234 Z M93.8523734,43.0724886 C94.9773079,43.0724886 95.9252722,42.7407011 96.6962947,42.0771162 C97.4673172,41.4135312 97.8528226,40.5824825 97.8528226,39.5839452 L102.023907,39.5839452 L102.061826,39.697702 C102.125025,41.6189385 101.344534,43.274716 99.7203309,44.6650845 C98.0961278,46.0554529 96.1401615,46.7506267 93.8523734,46.7506267 C90.831482,46.7506267 88.5152893,45.7773834 86.9037259,43.8308676 C85.2921624,41.8843518 84.4863928,39.4196447 84.4863928,36.4366724 L84.4863928,35.7730907 C84.4863928,32.8027581 85.2921624,30.3412109 86.9037259,28.3883752 C88.5152893,26.4355395 90.831482,25.4591363 93.8523734,25.4591363 C96.3171175,25.4591363 98.3173221,26.1764293 99.8530473,27.6110368 C101.388772,29.0456442 102.131344,30.8688955 102.080786,33.0808453 L102.042867,33.1946021 L97.8528226,33.1946021 C97.8528226,32.0696677 97.4831166,31.1153836 96.7436934,30.3317214 C96.0042701,29.5480592 95.0405065,29.156234 93.8523734,29.156234 C92.1207327,29.156234 90.8946989,29.7850503 90.1742353,31.0427017 C89.4537716,32.3003532 89.0935452,33.8771338 89.0935452,35.7730907 L89.0935452,36.4366724 C89.0935452,38.3705485 89.4537716,39.9599686 90.1742353,41.2049803 C90.8946989,42.4499921 92.1207327,43.0724886 93.8523734,43.0724886 L93.8523734,43.0724886 Z M111.484685,20.8519839 L111.484685,25.8383258 L115.162823,25.8383258 L115.162823,29.2510313 L111.484685,29.2510313 L111.484685,40.5887974 C111.484685,41.4356582 111.667958,42.0391954 112.03451,42.3994272 C112.401062,42.7596591 112.887683,42.9397723 113.494389,42.9397723 C113.747184,42.9397723 113.993654,42.9176531 114.233809,42.8734141 C114.473964,42.8291751 114.701475,42.7691374 114.91635,42.6932991 L115.409296,46.0680856 C115.017465,46.2829608 114.549803,46.4504344 114.006295,46.5705117 C113.462788,46.690589 112.900329,46.7506267 112.318902,46.7506267 C110.62518,46.7506267 109.298031,46.2545254 108.337412,45.262308 C107.376794,44.2700905 106.896492,42.7122692 106.896492,40.5887974 L106.896492,29.2510313 L103.768179,29.2510313 L103.768179,25.8383258 L106.896492,25.8383258 L106.896492,20.8519839 L111.484685,20.8519839 Z M131.600688,46.3524778 C131.436372,45.8342495 131.300497,45.3286686 131.193059,44.8357198 C131.085622,44.3427709 131.012945,43.8498295 130.975025,43.3568807 C130.34304,44.3174989 129.511991,45.1232685 128.481854,45.7742138 C127.451718,46.425159 126.298361,46.7506267 125.02175,46.7506267 C122.885639,46.7506267 121.245661,46.2008075 120.101767,45.1011524 C118.957872,44.0014974 118.385934,42.4910743 118.385934,40.5698379 C118.385934,38.5854029 119.169584,37.0402212 120.736909,35.9342463 C122.304233,34.8282714 124.50983,34.2752922 127.353766,34.2752922 L130.937106,34.2752922 L130.937106,32.4741421 C130.937106,31.3997665 130.621118,30.5592381 129.989133,29.9525319 C129.357147,29.3458257 128.453421,29.0424771 127.277928,29.0424771 C126.228832,29.0424771 125.394623,29.2952676 124.775277,29.8008561 C124.155931,30.3064446 123.846263,30.9573801 123.846263,31.753682 L119.409746,31.753682 L119.390786,31.6399252 C119.302308,30.0220419 120.025921,28.587456 121.561646,27.3361244 C123.097371,26.0847928 125.097576,25.4591363 127.56232,25.4591363 C129.951226,25.4591363 131.878753,26.0658335 133.34496,27.2792459 C134.811167,28.4926584 135.544259,30.2369127 135.544259,32.512061 L135.544259,41.6315685 C135.544259,42.4784293 135.601137,43.2905187 135.714894,44.067861 C135.828652,44.8452034 136.011925,45.6067347 136.264719,46.3524778 L131.600688,46.3524778 Z M125.950765,43.0535291 C127.113618,43.0535291 128.159539,42.7628201 129.088558,42.1813933 C130.017577,41.5999665 130.633753,40.9363915 130.937106,40.1906484 L130.937106,37.1571324 L127.277928,37.1571324 C125.938118,37.1571324 124.889038,37.4889199 124.130655,38.1525048 C123.372272,38.8160898 122.993086,39.5965804 122.993086,40.494 C122.993086,41.2776622 123.249037,41.9001587 123.760945,42.3615083 C124.272854,42.8228578 125.002786,43.0535291 125.950765,43.0535291 L125.950765,43.0535291 Z M146.104686,20.8519839 L146.104686,25.8383258 L149.782825,25.8383258 L149.782825,29.2510313 L146.104686,29.2510313 L146.104686,40.5887974 C146.104686,41.4356582 146.28796,42.0391954 146.654511,42.3994272 C147.021063,42.7596591 147.507685,42.9397723 148.114391,42.9397723 C148.367185,42.9397723 148.613656,42.9176531 148.85381,42.8734141 C149.093965,42.8291751 149.321476,42.7691374 149.536351,42.6932991 L150.029298,46.0680856 C149.637467,46.2829608 149.169804,46.4504344 148.626297,46.5705117 C148.082789,46.690589 147.52033,46.7506267 146.938903,46.7506267 C145.245182,46.7506267 143.918032,46.2545254 142.957414,45.262308 C141.996795,44.2700905 141.516494,42.7122692 141.516494,40.5887974 L141.516494,29.2510313 L138.38818,29.2510313 L138.38818,25.8383258 L141.516494,25.8383258 L141.516494,20.8519839 L146.104686,20.8519839 Z M158.788575,46.3524778 L154.181423,46.3524778 L154.181423,25.8383258 L158.788575,25.8383258 L158.788575,46.3524778 Z M158.788575,20.814065 L154.181423,20.814065 L154.181423,16.7756968 L158.788575,16.7756968 L158.788575,20.814065 Z M163.092376,35.9058071 C163.092376,32.8596362 163.926585,30.3570105 165.595027,28.397855 C167.288748,26.4386994 169.582822,25.4591363 172.477316,25.4591363 C175.422369,25.4591363 177.729082,26.4386994 179.397524,28.397855 C181.078606,30.3443708 181.919135,32.8469965 181.919135,35.9058071 L181.919135,36.303956 C181.919135,39.388046 181.078606,41.9033112 179.397524,43.8498271 C177.729082,45.7837032 175.435009,46.7506267 172.515235,46.7506267 C169.582822,46.7506267 167.276109,45.7773834 165.595027,43.8308676 C163.926585,41.8843518 163.092376,39.3754063 163.092376,36.303956 L163.092376,35.9058071 Z M167.699528,36.303956 C167.699528,38.3010307 168.091354,39.9315293 168.875016,41.1955006 C169.646038,42.4468322 170.859433,43.0724886 172.515235,43.0724886 C174.120479,43.0724886 175.321233,42.4468322 176.117535,41.1955006 C176.926477,39.9315293 177.330942,38.3010307 177.330942,36.303956 L177.330942,35.9058071 C177.330942,33.9466515 176.926477,32.3351123 176.117535,31.0711409 C175.321233,29.7945299 174.107839,29.156234 172.477316,29.156234 C170.872073,29.156234 169.671318,29.7945299 168.875016,31.0711409 C168.091354,32.347752 167.699528,33.9592912 167.699528,35.9058071 L167.699528,36.303956 Z M190.109628,25.8383258 L190.37506,28.7960039 C191.044965,27.7469077 191.888653,26.9284986 192.90615,26.3407519 C193.923647,25.7530053 195.070684,25.4591363 196.347295,25.4591363 C198.483407,25.4591363 200.148664,26.1069119 201.343117,27.4024825 C202.53757,28.6980531 203.134787,30.717217 203.134787,33.4600348 L203.134787,46.3524778 L198.527635,46.3524778 L198.527635,33.4979537 C198.527635,31.9559087 198.208487,30.8594301 197.570181,30.2084848 C196.931876,29.5575396 195.961792,29.2320719 194.659902,29.2320719 C193.762482,29.2320719 192.959872,29.4311444 192.252049,29.8292953 C191.544225,30.2274463 190.962806,30.7741057 190.507777,31.4692899 L190.507777,46.3524778 L185.900624,46.3524778 L185.900624,25.8383258 L190.109628,25.8383258 Z M219.458895,40.7783921 C219.458895,40.0705682 219.155547,39.4828303 218.54884,39.0151609 C217.942134,38.5474916 216.810897,38.136707 215.155094,37.7827951 C212.70299,37.2645668 210.84814,36.5283146 209.590488,35.5740162 C208.332837,34.6197179 207.704021,33.3210068 207.704021,31.6778441 C207.704021,29.9588431 208.430793,28.4926584 209.88436,27.2792459 C211.337927,26.0658335 213.252815,25.4591363 215.629081,25.4591363 C218.131744,25.4591363 220.119309,26.0753131 221.591836,27.3076852 C223.064363,28.5400572 223.769016,30.0662797 223.705817,31.8863984 L223.667899,32.0001552 L219.250341,32.0001552 C219.250341,31.1532944 218.928033,30.4265218 218.283408,29.8198156 C217.638782,29.2131094 216.754016,28.9097608 215.629081,28.9097608 C214.516786,28.9097608 213.669938,29.1593914 213.088512,29.6586601 C212.507085,30.1579287 212.216376,30.7677857 212.216376,31.4882494 C212.216376,32.208713 212.491285,32.7806515 213.041113,33.2040819 C213.59094,33.6275123 214.706378,34.0035381 216.38746,34.3321706 C218.965962,34.8630386 220.87769,35.6119304 222.122701,36.5788684 C223.367713,37.5458065 223.99021,38.8634768 223.99021,40.5319189 C223.99021,42.3773171 223.228678,43.8751006 221.705593,45.0253145 C220.182507,46.1755284 218.175983,46.7506267 215.68596,46.7506267 C213.01898,46.7506267 210.914499,46.0680925 209.372454,44.7030034 C207.830409,43.3379144 207.097317,41.7706135 207.173155,40.0010536 L207.211074,39.8872968 L211.495916,39.8872968 C211.546474,41.0754298 211.976218,41.9412372 212.78516,42.4847449 C213.594102,43.0282525 214.579984,43.3000023 215.742838,43.3000023 C216.930971,43.3000023 217.847337,43.0724909 218.491962,42.6174612 C219.136587,42.1624315 219.458895,41.5494146 219.458895,40.7783921 L219.458895,40.7783921 Z" id="pectations" fill="#FFFFFF" sketch:type="MSShapeGroup"></path>
            </g>
        </g>
    </g>
</svg>